<svg height="700pt" preserveAspectRatio="xMidYMid meet" viewBox="0 0 700 700" width="700pt" xmlns="http://www.w3.org/2000/svg"><g transform="matrix(.1 0 0 -.1 0 700)"><path d="m1730 6503c-243-37-434-227-478-473-4-25-7-1170-7-2545 1-2024 3-2510 14-2555 50-211 224-381 434-424 49-11 424-13 1812-14 1680 0 1753 1 1824 19 120 31 231 105 319 214 32 39 84 159 95 222 10 53 13 500 12 2083l-1 2015-22 70c-27 87-76 169-141 238-113 118-1028 1028-1051 1045-38 27-91 57-130 71-108 40-108 40-1405 39-687 0-1261-3-1275-5zm2146-1000c-1-651 0-663 41-738 30-55 97-106 167-126 17-5 316-9 664-10h632l-2-1818-3-1818-29-41c-16-23-46-50-70-62-42-20-53-20-1774-20-1883 0-1768-4-1827 55-59 60-55-123-55 2573 0 2710-4 2517 57 2578 56 56 3 53 1144 54h1055zm417 607c16 0 1045-1028 1063-1062 8-15 14-31 14-35 0-5-251-9-557-8h-558l-1 558c-2 488 0 558 13 553 8-3 20-6 26-6z"/><path d="m2523 4250-411-5-38-31c-21-16-47-48-58-69-20-39-20-52-21-1380 0-737 3-1356 8-1375 13-51 46-96 92-122l40-23h1365 1365l40 23c44 25 81 72 93 118 13 48 7 2715-6 2745-18 45-69 95-109 108-42 13-1580 20-2360 11zm2106-562-1-188h-1129-1129l1 182c0 101 2 185 4 188s510 5 1129 5h1127zm-1319-595c1-18 1-89 1-158s0-181-1-250v-125h-469-470v283l-1 282h470 470zm1317-251 2-282h-469-469l-3 276c-2 151 0 278 4 282s215 7 470 7h463zm-1317-817c3-88 4-215 2-282l-3-123h-470-469v279c0 177 4 281 10 283 5 2 216 3 467 3h458zm1317-123 3-282h-470-470v283 282h468 467z"/></g></svg>